<svg width="22" height="22" viewBox="0 0 22 22" fill="none" xmlns="http://www.w3.org/2000/svg">
<path d="M14.1426 18.0714V16.5C14.1426 15.6664 13.8115 14.867 13.2221 14.2776C12.6327 13.6882 11.8333 13.3571 10.9998 13.3571H5.49979C4.66625 13.3571 3.86686 13.6882 3.27746 14.2776C2.68806 14.867 2.35693 15.6664 2.35693 16.5V18.0714" stroke="white" stroke-width="2" stroke-linecap="round" stroke-linejoin="round"/>
<path d="M8.24979 10.2143C9.98554 10.2143 11.3926 8.8072 11.3926 7.07145C11.3926 5.33569 9.98554 3.92859 8.24979 3.92859C6.51404 3.92859 5.10693 5.33569 5.10693 7.07145C5.10693 8.8072 6.51404 10.2143 8.24979 10.2143Z" stroke="white" stroke-width="2" stroke-linecap="round" stroke-linejoin="round"/>
<path d="M17.2856 7.85712V12.5714" stroke="white" stroke-width="2" stroke-linecap="round" stroke-linejoin="round"/>
<path d="M19.643 10.2143H14.9287" stroke="white" stroke-width="2" stroke-linecap="round" stroke-linejoin="round"/>
</svg>
